<svg width="15" height="15" viewBox="0 0 15 15" fill="none" xmlns="http://www.w3.org/2000/svg">
<path d="M9.49498 7.49791C9.49498 6.94724 9.30364 6.47591 8.92098 6.08391C8.53831 5.69191 8.06698 5.49591 7.50698 5.49591C6.94698 5.49591 6.47564 5.69191 6.09298 6.08391C5.71031 6.47591 5.51431 6.94724 5.50498 7.49791C5.49564 8.04857 5.69164 8.51991 6.09298 8.91191C6.49431 9.30391 6.96564 9.49991 7.50698 9.49991C8.04831 9.49991 8.51964 9.30391 8.92098 8.91191C9.32231 8.51991 9.51364 8.04857 9.49498 7.49791ZM10.573 7.49791C10.573 8.34724 10.2743 9.07524 9.67698 9.68191C9.07964 10.2886 8.35631 10.5872 7.50698 10.5779C6.65764 10.5686 5.92964 10.2699 5.32298 9.68191C4.71631 9.09391 4.41764 8.36591 4.42698 7.49791C4.43631 6.62991 4.73498 5.90191 5.32298 5.31391C5.91098 4.72591 6.63898 4.42724 7.50698 4.41791C8.37498 4.40857 9.09831 4.70724 9.67698 5.31391C10.2556 5.92057 10.5543 6.64857 10.573 7.49791ZM11.427 4.29191C11.427 4.48791 11.357 4.65591 11.217 4.79591C11.077 4.93591 10.9043 5.00591 10.699 5.00591C10.4936 5.00591 10.3256 4.93591 10.195 4.79591C10.0643 4.65591 9.99431 4.48791 9.98498 4.29191C9.97564 4.09591 10.0456 3.92791 10.195 3.78791C10.3443 3.64791 10.5123 3.57791 10.699 3.57791C10.8856 3.57791 11.0583 3.64791 11.217 3.78791C11.3756 3.92791 11.4456 4.09591 11.427 4.29191ZM7.50698 2.56991C7.46964 2.56991 7.26898 2.56991 6.90498 2.56991H6.07898C5.89231 2.56991 5.64031 2.57924 5.32298 2.59791C5.00564 2.61657 4.73964 2.63991 4.52498 2.66791C4.31031 2.69591 4.12364 2.74724 3.96498 2.82191C3.70364 2.92457 3.47498 3.07391 3.27898 3.26991C3.08298 3.46591 2.92898 3.69457 2.81698 3.95591C2.76098 4.10524 2.71431 4.29191 2.67698 4.51591C2.63964 4.73991 2.61164 5.01057 2.59298 5.32791C2.57431 5.64524 2.56964 5.89257 2.57898 6.06991C2.58831 6.24724 2.58831 6.52257 2.57898 6.89591C2.56964 7.26924 2.56964 7.46991 2.57898 7.49791C2.58831 7.52591 2.58831 7.72657 2.57898 8.09991C2.56964 8.47324 2.56964 8.74857 2.57898 8.92591C2.58831 9.10324 2.59298 9.35057 2.59298 9.66791C2.59298 9.98524 2.62098 10.2559 2.67698 10.4799L2.81698 11.0399C2.92898 11.3012 3.08298 11.5299 3.27898 11.7259C3.47498 11.9219 3.70364 12.0712 3.96498 12.1739C4.11431 12.2299 4.30098 12.2812 4.52498 12.3279C4.74898 12.3746 5.01498 12.3979 5.32298 12.3979C5.63098 12.3979 5.88298 12.4072 6.07898 12.4259C6.27498 12.4446 6.55031 12.4446 6.90498 12.4259C7.25964 12.4072 7.46031 12.4072 7.50698 12.4259C7.55364 12.4446 7.74964 12.4446 8.09498 12.4259C8.44031 12.4072 8.71564 12.4072 8.92098 12.4259C9.12631 12.4446 9.37831 12.4352 9.67698 12.3979C9.97564 12.3606 10.2463 12.3372 10.489 12.3279C10.7316 12.3186 10.9136 12.2672 11.035 12.1739C11.2963 12.0712 11.5296 11.9219 11.735 11.7259C11.9403 11.5299 12.0896 11.3012 12.183 11.0399C12.239 10.8906 12.2856 10.7039 12.323 10.4799C12.3603 10.2559 12.3883 9.98524 12.407 9.66791C12.4256 9.35057 12.4303 9.10324 12.421 8.92591C12.4116 8.74857 12.4116 8.47324 12.421 8.09991C12.4303 7.72657 12.4303 7.52591 12.421 7.49791C12.4116 7.46991 12.4116 7.26924 12.421 6.89591C12.4303 6.52257 12.4303 6.24724 12.421 6.06991C12.4116 5.89257 12.407 5.64524 12.407 5.32791C12.407 5.01057 12.379 4.73991 12.323 4.51591L12.183 3.95591C12.0803 3.69457 11.931 3.46591 11.735 3.26991C11.539 3.07391 11.3056 2.92457 11.035 2.82191C10.8856 2.76591 10.7036 2.71457 10.489 2.66791C10.2743 2.62124 10.0036 2.59791 9.67698 2.59791C9.35031 2.59791 9.09831 2.58857 8.92098 2.56991C8.74364 2.55124 8.46831 2.55124 8.09498 2.56991C7.72164 2.58857 7.52564 2.58857 7.50698 2.56991ZM13.499 7.49791C13.499 8.69257 13.485 9.51857 13.457 9.97591C13.4103 11.0586 13.0883 11.8986 12.491 12.4959C11.8936 13.0932 11.0583 13.4152 9.98498 13.4619C9.51831 13.4899 8.69231 13.5039 7.50698 13.5039C6.32164 13.5039 5.49564 13.4899 5.02898 13.4619C3.94631 13.4059 3.10631 13.0839 2.50898 12.4959C1.91164 11.9079 1.58964 11.0679 1.54298 9.97591C1.51498 9.51857 1.50098 8.69257 1.50098 7.49791C1.50098 6.30324 1.51498 5.47724 1.54298 5.01991C1.58964 3.93724 1.91164 3.09724 2.50898 2.49991C3.10631 1.90257 3.94631 1.58057 5.02898 1.53391C5.48631 1.50591 6.31231 1.49191 7.50698 1.49191C8.70164 1.49191 9.52764 1.50591 9.98498 1.53391C11.0676 1.58991 11.903 1.91191 12.491 2.49991C13.079 3.08791 13.401 3.92791 13.457 5.01991C13.485 5.47724 13.499 6.30324 13.499 7.49791Z" fill="white" fill-opacity="0.95"/>
</svg>
