<svg width="15" height="11" viewBox="0 0 15 11" fill="none" xmlns="http://www.w3.org/2000/svg">
<path d="M14.2266 3.46875C14.3359 3.38672 14.5 3.46875 14.5 3.60547V9.18359C14.5 9.92188 13.8984 10.4961 13.1875 10.4961H1.8125C1.07422 10.4961 0.5 9.92188 0.5 9.18359V3.60547C0.5 3.46875 0.636719 3.38672 0.746094 3.46875C1.375 3.96094 2.16797 4.5625 4.95703 6.58594C5.53125 6.99609 6.51562 7.89844 7.5 7.89844C8.45703 7.89844 9.46875 6.99609 10.0156 6.58594C12.8047 4.5625 13.5977 3.96094 14.2266 3.46875ZM7.5 6.99609C6.84375 7.02344 5.94141 6.20312 5.47656 5.875C1.83984 3.25 1.56641 3.00391 0.746094 2.34766C0.582031 2.23828 0.5 2.04688 0.5 1.82812V1.30859C0.5 0.597656 1.07422 -0.00390625 1.8125 -0.00390625H13.1875C13.8984 -0.00390625 14.5 0.597656 14.5 1.30859V1.82812C14.5 2.04688 14.3906 2.23828 14.2266 2.34766C13.4062 3.00391 13.1328 3.25 9.49609 5.875C9.03125 6.20312 8.12891 7.02344 7.5 6.99609Z" fill="white" fill-opacity="0.75"/>
</svg>
