<svg width="15" height="15" viewBox="0 0 15 15" fill="none" xmlns="http://www.w3.org/2000/svg">
<path d="M14.4805 0.929688C14.7812 1.01172 15 1.25781 15 1.55859C15 8.58594 9.3125 14.2461 2.3125 14.2461C1.98438 14.2461 1.73828 14.0547 1.65625 13.7539L1 10.9102C0.945312 10.6094 1.08203 10.2812 1.38281 10.1445L4.44531 8.83203C4.71875 8.72266 5.01953 8.80469 5.21094 9.02344L6.57812 10.6914C8.71094 9.67969 10.4336 7.92969 11.418 5.85156L9.75 4.48438C9.53125 4.29297 9.44922 3.99219 9.55859 3.71875L10.8711 0.65625C11.0078 0.355469 11.3359 0.191406 11.6367 0.273438L14.4805 0.929688Z" fill="white" fill-opacity="0.75"/>
</svg>
